# xmcd
#
# Track frame offsets:
#	150
#	16011
#	33767
#	49364
#	68176
#	86294
#	99614
#	113606
#	131542
#	144180
#	159585
#	175131
#	189023
#	206310
#	220304
#	233912
#	249806
#	266018
#	279219
#	293513
#	307091
#
# Disc length: 4311 seconds
#
# Revision: 0
# Processed by: cddbd v1.5PL3 Copyright (c) Steve Scherf et al.
# Submitted via: dBpowerAMP V4.0
#
DISCID=1110d515
DTITLE=Vários - Explosão Sertaneja - As 20 Mais
DYEAR=2004
DGENRE=Country
TTITLE0=Bruno e Marrone - Ligação Urbana
TTITLE1=Rodrigo e Ricardo - Quem Tem Saudade
TTITLE2=Pedro e Thiago - Pra Onde Você For
TTITLE3=Chitãozinho e Xororó - Encontro Casual
TTITLE4=Edson e Hudson - Meu Anjo
TTITLE5=Leonardo - Ei, Psiu
TTITLE6=Rio Negro e Solimões - Grito da Galera
TTITLE7=Rick e Renner - É Você
TTITLE8=Zezé Di Camargo e Luciano - Só Amor pra Ela
TTITLE9=Rodrigo e Ricardo - Seu Brinquedo
TTITLE10=Elvis e Ricardo - Pra Sempre Irei te Amar
TTITLE11=César e Paulinho - Nóis Só Que Vira o Zóio
TTITLE12=Rio Negro e Solimões - No Fim desta Estrada
TTITLE13=Marcos e Fernando - Loucura de Paixão
TTITLE14=Daniel e José Camilo - Encantos da Natureza
TTITLE15=Fred e Pedrito - Tá Faltando Você
TTITLE16=Gino e Geno - Mete o Dedo
TTITLE17=Breno Reis e Marco Viola - Bom de Bico
TTITLE18=Bruno e Marlon - Faz Parte
TTITLE19=Ataíde e Alexandre - Tá Nervoso ... Vai Pescá
TTITLE20=Bruno e Marlon - Não Fuja da Raia
EXTD=
EXTT0=
EXTT1=
EXTT2=
EXTT3=
EXTT4=
EXTT5=
EXTT6=
EXTT7=
EXTT8=
EXTT9=
EXTT10=
EXTT11=
EXTT12=
EXTT13=
EXTT14=
EXTT15=
EXTT16=
EXTT17=
EXTT18=
EXTT19=
EXTT20=
PLAYORDER=
